<?xml version="1.0" encoding="UTF-8"?>
<svg xmlns="http://www.w3.org/2000/svg" viewBox="0 0 1400 560" role="img" aria-label="JagoPrem LLM banner">
  <defs>
    <linearGradient id="bg" x1="0" y1="0" x2="1" y2="1">
      <stop offset="0" stop-color="#eafcff"/>
      <stop offset="1" stop-color="#f7fffd"/>
    </linearGradient>
    <linearGradient id="accent" x1="0" y1="0" x2="1" y2="1">
      <stop offset="0" stop-color="#0f95a6"/>
      <stop offset="1" stop-color="#12c7c2"/>
    </linearGradient>
  </defs>
  <rect width="1400" height="560" fill="url(#bg)"/>
  <path d="M860 80h330c42 0 76 34 76 76v248c0 42-34 76-76 76H860c-42 0-76-34-76-76V156c0-42 34-76 76-76Z" fill="#fff" stroke="#d5eaed" stroke-width="2"/>
  <rect x="124" y="104" width="600" height="352" rx="36" fill="#0f95a6"/>
  <rect x="158" y="138" width="220" height="34" rx="17" fill="#ffffff" opacity=".16"/>
  <text x="184" y="162" font-family="Arial, sans-serif" font-size="18" font-weight="800" fill="#dffcff">jagoprem.shop LLM API</text>
  <text x="160" y="238" font-family="Arial, sans-serif" font-size="54" font-weight="900" fill="#fff">Model AI</text>
  <text x="160" y="300" font-family="Arial, sans-serif" font-size="54" font-weight="900" fill="#fff">terbaru</text>
  <text x="160" y="354" font-family="Arial, sans-serif" font-size="22" font-weight="600" fill="#dbfbff">Akses beberapa model dalam satu pintu.</text>
  <rect x="160" y="386" width="184" height="50" rx="16" fill="#fff"/>
  <text x="194" y="418" font-family="Arial, sans-serif" font-size="18" font-weight="800" fill="#0f95a6">Lihat Model</text>
  <rect x="884" y="124" width="252" height="68" rx="22" fill="#eafcff"/>
  <rect x="884" y="208" width="252" height="68" rx="22" fill="#eafcff"/>
  <rect x="884" y="292" width="252" height="68" rx="22" fill="#eafcff"/>
  <circle cx="939" cy="158" r="18" fill="url(#accent)"/>
  <circle cx="939" cy="242" r="18" fill="url(#accent)"/>
  <circle cx="939" cy="326" r="18" fill="url(#accent)"/>
  <text x="977" y="153" font-family="Arial, sans-serif" font-size="18" font-weight="800" fill="#11262b">Claude Fable</text>
  <text x="977" y="237" font-family="Arial, sans-serif" font-size="18" font-weight="800" fill="#11262b">GPT 5.6 Sol</text>
  <text x="977" y="321" font-family="Arial, sans-serif" font-size="18" font-weight="800" fill="#11262b">Luna & Terra</text>
</svg>