<svg xmlns="http://www.w3.org/2000/svg" viewBox="0 0 1400 520">
  <defs>
    <linearGradient id="bg" x1="0" y1="0" x2="1400" y2="520" gradientUnits="userSpaceOnUse">
      <stop offset="0" stop-color="#081624"/>
      <stop offset="0.5" stop-color="#0e4564"/>
      <stop offset="1" stop-color="#13b7c3"/>
    </linearGradient>
  </defs>
  <rect width="1400" height="520" fill="url(#bg)"/>
  <circle cx="1160" cy="108" r="160" fill="#fff" fill-opacity=".06"/>
  <circle cx="1020" cy="408" r="210" fill="#fff" fill-opacity=".05"/>
  <g transform="translate(88 92)">
    <rect width="126" height="126" rx="30" fill="#ffffff" fill-opacity=".12"/>
    <path d="M42 34h20c18 0 31 10 31 24s-13 24-31 24H42V34Zm20 14h-4v20h4c8 0 13-3 13-10s-5-10-13-10Z" fill="#f8ffff"/>
    <path d="M65 44h8c9 0 14 3 14 8s-5 8-14 8h-8v-5h10c3 0 4-1 4-3s-1-3-4-3H65v-5Z" fill="#083b4a"/>
  </g>
  <text x="254" y="156" fill="#ffffff" font-size="46" font-weight="800" font-family="Arial, sans-serif">Promo restock</text>
  <text x="254" y="228" fill="#dcffff" font-size="82" font-weight="900" font-family="Arial, sans-serif">CHATGPT PLUS</text>
  <text x="254" y="286" fill="#d9f7f7" font-size="30" font-family="Arial, sans-serif">Paket pilihan, stok dibuka lagi, dan checkout tetap ringan di mobile.</text>
  <rect x="254" y="338" width="256" height="62" rx="18" fill="#ffffff" fill-opacity=".14" stroke="#ffffff" stroke-opacity=".18"/>
  <text x="289" y="378" fill="#ffffff" font-size="28" font-weight="700" font-family="Arial, sans-serif">Klaim sebelum habis</text>
</svg>