<svg xmlns="http://www.w3.org/2000/svg" viewBox="0 0 96 96">
  <defs>
    <linearGradient id="logo" x1="10" y1="10" x2="86" y2="86" gradientUnits="userSpaceOnUse">
      <stop offset="0" stop-color="#1ee6ef"/>
      <stop offset="1" stop-color="#0b6f8a"/>
    </linearGradient>
  </defs>
  <rect x="8" y="8" width="80" height="80" rx="22" fill="url(#logo)"/>
  <path d="M29 26h15c14 0 24 8 24 20s-10 20-24 20H29V26Zm15 12h-3v16h3c8 0 13-3 13-8s-5-8-13-8Z" fill="#f6fffe"/>
  <path d="M49 35h7c10 0 16 4 16 10s-6 10-16 10h-7v-7h8c3 0 5-1 5-3s-2-3-5-3h-8v-7Z" fill="#073645"/>
</svg>