<svg xmlns="http://www.w3.org/2000/svg" viewBox="0 0 64 64">
  <defs>
    <linearGradient id="g" x1="8" y1="8" x2="56" y2="56" gradientUnits="userSpaceOnUse">
      <stop offset="0" stop-color="#1ee6ef"/>
      <stop offset="1" stop-color="#0b6f8a"/>
    </linearGradient>
  </defs>
  <rect x="5" y="5" width="54" height="54" rx="15" fill="url(#g)"/>
  <path d="M20 18h11c10 0 18 5 18 14s-8 14-18 14H20V18Zm11 8h-2v12h2c5 0 9-2 9-6s-4-6-9-6Z" fill="#f8fffe"/>
  <path d="M33 25h5c7 0 11 3 11 7s-4 7-11 7h-5v-7h7c1 0 2 0 2-1s-1-1-2-1h-7v-5Z" fill="#083b4a"/>
</svg>